<svg width="18" height="21" viewBox="0 0 18 21" fill="none" xmlns="http://www.w3.org/2000/svg">
<path fill-rule="evenodd" clip-rule="evenodd" d="M2.67206 2.59418C4.35381 0.937048 6.61843 0.0056349 8.97943 2.54836e-05C11.3404 -0.00558393 13.6095 0.915058 15.2991 2.56418H15.3011L15.3331 2.59418C18.8781 6.08118 18.8851 11.6822 15.3751 15.1342L9.70406 20.7122C9.517 20.8963 9.26504 20.9995 9.00256 20.9995C8.74008 20.9995 8.48812 20.8963 8.30106 20.7122L2.63006 15.1342C1.79749 14.3202 1.13595 13.3481 0.684304 12.2749C0.232656 11.2017 0 10.049 0 8.88468C0 7.72031 0.232656 6.56769 0.684304 5.49449C1.13595 4.42129 1.79749 3.44916 2.63006 2.63518L2.67206 2.59418ZM9.00006 4.99918C8.6061 4.99918 8.21599 5.07678 7.85201 5.22754C7.48803 5.3783 7.15732 5.59928 6.87874 5.87786C6.60016 6.15643 6.37919 6.48715 6.22842 6.85113C6.07766 7.21511 6.00006 7.60521 6.00006 7.99918C6.00006 8.39314 6.07766 8.78325 6.22842 9.14723C6.37919 9.5112 6.60016 9.84192 6.87874 10.1205C7.15732 10.3991 7.48803 10.6201 7.85201 10.7708C8.21599 10.9216 8.6061 10.9992 9.00006 10.9992C9.79571 10.9992 10.5588 10.6831 11.1214 10.1205C11.684 9.55789 12.0001 8.79483 12.0001 7.99918C12.0001 7.20353 11.684 6.44047 11.1214 5.87786C10.5588 5.31525 9.79571 4.99918 9.00006 4.99918Z" fill="black"/>
</svg>
